<?xml version="1.0" encoding="UTF-8"?>
<svg width="512px" height="512px" viewBox="0 0 512 512" version="1.1" xmlns="http://www.w3.org/2000/svg" xmlns:xlink="http://www.w3.org/1999/xlink">
    <!-- Generator: Sketch 50.2 (55047) - http://www.bohemiancoding.com/sketch -->
    <title>checked</title>
    <desc>Created with Sketch.</desc>
    <defs></defs>
    <g id="Page-1" stroke="none" stroke-width="1" fill="none" fill-rule="evenodd">
        <g id="checked" fill-rule="nonzero">
            <path d="M437.019,74.98 C388.667,26.629 324.38,0 256,0 C187.619,0 123.332,26.629 74.979,74.98 C26.628,123.332 0,187.62 0,256 C0,324.38 26.628,388.667 74.979,437.019 C123.332,485.371 187.619,512 256,512 C324.38,512 388.667,485.371 437.019,437.019 C485.371,388.667 512,324.38 512,256 C512,187.62 485.371,123.333 437.019,74.98 Z" id="Shape" fill="#FFFFFF"></path>
            <path d="M437.019,74.98 C388.667,26.629 324.38,0 256,0 L256,512 C324.38,512 388.667,485.371 437.019,437.019 C485.371,388.667 512,324.38 512,256 C512,187.62 485.371,123.333 437.019,74.98 Z" id="Shape" fill="#FFFFFF"></path>
            <path d="M224.634,342.532 C220.795,342.532 216.956,341.067 214.028,338.139 L133.695,257.806 C127.837,251.949 127.837,242.451 133.695,236.593 C139.552,230.736 149.05,230.736 154.908,236.593 L224.635,306.32 L357.093,173.86 C362.95,168.003 372.448,168.003 378.306,173.86 C384.164,179.717 384.164,189.215 378.306,195.073 L235.24,338.139 C232.311,341.067 228.473,342.532 224.634,342.532 Z" id="Shape" fill="#4110C2"></path>
            <path d="M378.306,173.86 C372.449,168.003 362.951,168.003 357.093,173.86 L256,274.953 L256,317.379 L378.306,195.073 C384.164,189.216 384.164,179.718 378.306,173.86 Z" id="Shape" fill="#4110C2"></path>
        </g>
    </g>
</svg>